<svg xmlns="http://www.w3.org/2000/svg" width="100" height="100" viewBox="0 0 100 100" preserveAspectRatio="none">
  <!-- Opaque ink through 82%; the rest is a rough leading edge and isolated flecks. -->
  <g fill="#fff">
    <rect width="82" height="100"/>
    <path d="M82 0 H88 L86 3 92 5 85 8 89 11 84 14 94 17 87 20 91 23 83 26 88 29 85 32 95 35 86 38 90 41 84 44 92 47 86 50 89 53 83 56 93 59 85 62 90 65 84 68 94 71 87 74 91 77 83 80 89 83 85 86 95 89 86 92 90 95 84 98 88 100 H82 Z"/>
    <circle cx="94" cy="3" r="1.1"/><circle cx="97" cy="9" r="0.7"/>
    <circle cx="91" cy="14" r="0.6"/><circle cx="96" cy="20" r="1.2"/>
    <circle cx="93" cy="27" r="0.9"/><circle cx="98" cy="32" r="0.6"/>
    <circle cx="91" cy="39" r="0.7"/><circle cx="97" cy="44" r="1"/>
    <circle cx="94" cy="51" r="1.2"/><circle cx="99" cy="57" r="0.5"/>
    <circle cx="91" cy="64" r="0.8"/><circle cx="97" cy="69" r="0.7"/>
    <circle cx="93" cy="76" r="1.1"/><circle cx="98" cy="82" r="0.6"/>
    <circle cx="92" cy="88" r="0.6"/><circle cx="97" cy="94" r="1"/>
  </g>
</svg>
